<svg width="40" height="40" viewBox="0 0 40 40" fill="none" xmlns="http://www.w3.org/2000/svg">
<circle cx="20" cy="20" r="20" fill="white"/>
<g clip-path="url(#clip0_118_11)">
<path d="M24.5855 9C24.5855 9.23493 24.5989 9.46986 24.5855 9.70479C24.5587 10.3313 24.3713 10.9055 24.0635 11.4537C23.5683 12.3151 22.899 13.0199 22.0156 13.5289C21.4535 13.8421 20.8511 13.9988 20.2087 13.9857C20.1284 13.9857 20.0882 13.9727 20.0748 13.8682C20.0213 13.1504 20.1685 12.4848 20.4764 11.8452C21.1992 10.3704 22.377 9.46986 23.9832 9.07831C24.1438 9.03915 24.291 9.0261 24.4516 9C24.5052 9 24.5453 9 24.5855 9Z" fill="black"/>
<path d="M11 20.7464C11 20.4724 11 20.1983 11 19.9372C11 19.9111 11.0134 19.885 11.0134 19.8589C11.0268 19.6501 11.0402 19.4413 11.0669 19.2194C11.1874 18.3319 11.4551 17.4835 11.9235 16.7135C12.6597 15.4997 13.7037 14.6644 15.0957 14.2467C15.6579 14.0771 16.2334 13.9988 16.8358 14.0379C17.2507 14.0771 17.6388 14.1684 18.0404 14.299C18.5624 14.4686 19.0844 14.6513 19.6064 14.821C19.9946 14.9515 20.3827 14.9776 20.7709 14.8341C21.2661 14.6513 21.7614 14.4947 22.27 14.3251C22.8188 14.1423 23.3675 14.0118 23.9431 13.9727C24.4651 13.9335 24.9871 14.0118 25.4957 14.1162C26.5397 14.3381 27.4499 14.808 28.1727 15.578C28.3199 15.7346 28.4404 15.8912 28.5742 16.0479C28.427 16.1523 28.2797 16.2306 28.1459 16.3219C27.5302 16.7526 27.0082 17.2747 26.6602 17.9403C26.1248 18.9714 26.0311 20.0547 26.2988 21.151C26.6736 22.6911 27.6908 23.7091 29.1498 24.3617C29.1498 24.3748 29.1498 24.3878 29.1498 24.4009C29.1364 24.427 29.123 24.4531 29.1096 24.4792C28.949 24.8707 28.8017 25.2623 28.6277 25.6408C28.1994 26.5805 27.6105 27.4288 26.9546 28.225C26.62 28.6426 26.2453 29.0472 25.8036 29.3735C25.3619 29.6868 24.88 29.8956 24.3312 29.9478C23.9029 29.9739 23.488 29.8956 23.0864 29.7781C22.7117 29.6607 22.3503 29.5171 21.9755 29.3866C21.4669 29.2169 20.9315 29.1125 20.3827 29.1386C19.8206 29.1517 19.2852 29.2822 18.7632 29.4649C18.3482 29.6085 17.9333 29.752 17.5184 29.8825C17.3578 29.9348 17.1838 29.9478 17.0231 29.987C16.8625 29.987 16.7153 29.987 16.5547 29.987C16.5413 29.987 16.5413 29.9739 16.5279 29.9739C16.0728 29.9217 15.6713 29.7259 15.3099 29.4649C14.8682 29.1517 14.4934 28.7601 14.1454 28.3425C12.9943 26.9981 12.1377 25.4972 11.5889 23.8136C11.3078 22.926 11.1071 22.0124 11.0268 21.0858C11.0268 20.9814 11.0134 20.8639 11 20.7464Z" fill="black"/>
</g>
<defs>
<clipPath id="clip0_118_11">
<rect width="18.1364" height="21" fill="white" transform="translate(11 9)"/>
</clipPath>
</defs>
</svg>
