<svg width="40" height="40" viewBox="0 0 40 40" fill="none" xmlns="http://www.w3.org/2000/svg">
<circle cx="20" cy="20" r="20" fill="white"/>
<g clip-path="url(#clip0_118_10)">
<path d="M14.3896 10.3117C14.1558 10.5455 14 10.9351 14 11.4026V28.6234C14 29.0909 14.1558 29.4805 14.3896 29.7143L14.4675 29.7922L24.0519 20.1299V20.052V19.974L14.3896 10.3117Z" fill="url(#paint0_linear_118_10)"/>
<path d="M27.3247 23.3247L24.0519 20.1299V20.052V19.974L27.2467 16.7792L27.3247 16.8572L31.1429 19.039C32.2338 19.6624 32.2338 20.6753 31.1429 21.2987L27.3247 23.3247Z" fill="url(#paint1_linear_118_10)"/>
<path d="M27.3247 23.3247L24.0519 20.0519L14.3896 29.7143C14.7792 30.1039 15.3247 30.1039 16.026 29.7922L27.3247 23.3247Z" fill="url(#paint2_linear_118_10)"/>
<path d="M27.3247 16.7013L15.948 10.2338C15.3247 9.84417 14.7013 9.92209 14.3896 10.3117L24.1298 20.052L27.3247 16.7013Z" fill="url(#paint3_linear_118_10)"/>
<path opacity="0.2" d="M27.3247 23.2468L15.9481 29.6364C15.3247 30.026 14.7792 29.9481 14.3896 29.6364L14.3117 29.7143L14.3896 29.7922C14.7792 30.1039 15.3247 30.1818 15.9481 29.7922L27.3247 23.2468Z" fill="black"/>
<path opacity="0.12" d="M14.3896 29.6364C14.1558 29.4026 14 29.013 14 28.5455V28.6234C14 29.0909 14.1558 29.4805 14.3896 29.7143V29.6364Z" fill="black"/>
<path opacity="0.12" d="M31.1429 21.0649L27.2468 23.2467L27.3247 23.3247L31.1429 21.1429C31.6883 20.8312 31.9221 20.4416 31.9221 20.0519C31.9221 20.3636 31.6883 20.7532 31.1429 21.0649Z" fill="black"/>
<path opacity="0.25" d="M15.9481 10.3896L31.1429 19.039C31.6104 19.3507 31.9221 19.6623 31.9221 20.052C31.9221 19.6623 31.6883 19.2727 31.1429 18.961L15.9481 10.2338C14.8571 9.6104 14 10.1559 14 11.4026V11.4805C14 10.2338 14.8571 9.76624 15.9481 10.3896Z" fill="white"/>
</g>
<defs>
<linearGradient id="paint0_linear_118_10" x1="23.2159" y1="11.2228" x2="10.1387" y2="24.3" gradientUnits="userSpaceOnUse">
<stop stop-color="#00A0FF"/>
<stop offset="0.00657445" stop-color="#00A1FF"/>
<stop offset="0.2601" stop-color="#00BEFF"/>
<stop offset="0.5122" stop-color="#00D2FF"/>
<stop offset="0.7604" stop-color="#00DFFF"/>
<stop offset="1" stop-color="#00E3FF"/>
</linearGradient>
<linearGradient id="paint1_linear_118_10" x1="32.5936" y1="20.0215" x2="13.7389" y2="20.0215" gradientUnits="userSpaceOnUse">
<stop stop-color="#FFE000"/>
<stop offset="0.4087" stop-color="#FFBD00"/>
<stop offset="0.7754" stop-color="#FFA500"/>
<stop offset="1" stop-color="#FF9C00"/>
</linearGradient>
<linearGradient id="paint2_linear_118_10" x1="25.5748" y1="21.8096" x2="7.84109" y2="39.5433" gradientUnits="userSpaceOnUse">
<stop stop-color="#FF3A44"/>
<stop offset="1" stop-color="#C31162"/>
</linearGradient>
<linearGradient id="paint3_linear_118_10" x1="11.9153" y1="4.57329" x2="19.8342" y2="12.4921" gradientUnits="userSpaceOnUse">
<stop stop-color="#32A071"/>
<stop offset="0.0685" stop-color="#2DA771"/>
<stop offset="0.4762" stop-color="#15CF74"/>
<stop offset="0.8009" stop-color="#06E775"/>
<stop offset="1" stop-color="#00F076"/>
</linearGradient>
<clipPath id="clip0_118_10">
<rect width="18" height="20.026" fill="white" transform="translate(14 10)"/>
</clipPath>
</defs>
</svg>
