<svg width="48" height="48" viewBox="0 0 48 48" fill="none" xmlns="http://www.w3.org/2000/svg">
<rect width="48" height="48" rx="6" fill="#EEF2FD"/>
<path d="M33.7906 27.1466H22.0628C21.9581 27.1466 21.8534 27.1466 21.8534 27.1466C20.4921 28.9267 19.1309 30.6021 17.7696 32.3822C17.6649 32.5916 17.3508 32.4869 17.3508 32.2775C17.4555 30.6021 17.4555 29.0314 17.5602 27.356C17.5602 27.2513 17.4555 27.1466 17.3508 27.1466H14.2094C14.1047 27.1466 14 27.0419 14 26.9372V15.2094C14 15.1047 14.1047 15 14.2094 15H33.7906C33.8953 15 34 15.1047 34 15.2094V26.8325C34 27.0419 33.8953 27.1466 33.7906 27.1466Z" stroke="#5E81F4" stroke-width="2" stroke-miterlimit="10" stroke-linecap="round" stroke-linejoin="round"/>
</svg>
